<svg width="188" height="61" viewBox="0 0 188 61" fill="none" xmlns="http://www.w3.org/2000/svg">
<rect x="0.912109" y="0.517578" width="186.251" height="60.225" rx="6.69167" fill="#131313"/>
<path d="M54.1208 40.5033C53.6563 41.5411 53.1066 42.4963 52.4697 43.3746C51.6015 44.5718 50.8906 45.4006 50.3427 45.8608C49.4935 46.6162 48.5836 47.003 47.6092 47.025C46.9097 47.025 46.0662 46.8325 45.0842 46.442C44.099 46.0533 43.1937 45.8608 42.3659 45.8608C41.4977 45.8608 40.5665 46.0533 39.5705 46.442C38.573 46.8325 37.7695 47.036 37.1551 47.0562C36.2207 47.0947 35.2894 46.6968 34.3598 45.8608C33.7664 45.3602 33.0243 44.5021 32.1352 43.2866C31.1814 41.9885 30.3971 40.4832 29.7827 38.767C29.1248 36.9134 28.7949 35.1184 28.7949 33.3806C28.7949 31.39 29.2396 29.6732 30.1304 28.2344C30.8305 27.0788 31.7618 26.1672 32.9274 25.498C34.0931 24.8287 35.3525 24.4877 36.7089 24.4659C37.451 24.4659 38.4242 24.6879 39.6337 25.1243C40.8397 25.5621 41.614 25.7842 41.9536 25.7842C42.2074 25.7842 43.0676 25.5245 44.5259 25.0069C45.905 24.5269 47.069 24.3282 48.0225 24.4065C50.6062 24.6082 52.5474 25.5933 53.8383 27.3681C51.5275 28.7223 50.3844 30.619 50.4072 33.0523C50.428 34.9475 51.1389 36.5247 52.536 37.7769C53.1692 38.3582 53.8762 38.8074 54.6629 39.1264C54.4923 39.6049 54.3122 40.0633 54.1208 40.5033ZM48.195 17.9497C48.195 19.4352 47.6339 20.8222 46.5154 22.106C45.1657 23.6322 43.5332 24.5141 41.7629 24.3749C41.7403 24.1967 41.7272 24.0092 41.7272 23.8121C41.7272 22.386 42.3691 20.8598 43.5089 19.6119C44.078 18.9801 44.8018 18.4548 45.6795 18.0357C46.5552 17.6229 47.3836 17.3946 48.1627 17.3555C48.1855 17.5541 48.195 17.7527 48.195 17.9497V17.9497Z" fill="white"/>
<path d="M84.4626 46.0654H81.9109L80.9294 43.1925H76.4148L75.4333 46.0654H72.9173L77.2178 34.2881H80.1621L84.4626 46.0654ZM76.9679 41.3723H80.3762L78.6632 36.2331L76.9679 41.3723ZM85.7813 49.8128V37.1432H87.9762L88.1368 39.9805L87.8334 39.6593C87.9405 39.1358 88.1368 38.6719 88.4223 38.2674C88.7197 37.8629 89.0944 37.5477 89.5465 37.3217C89.9985 37.0837 90.5041 36.9648 91.0632 36.9648C91.7889 36.9648 92.4373 37.1492 93.0083 37.5179C93.5793 37.8867 94.0254 38.4161 94.3466 39.1061C94.6797 39.7842 94.8463 40.611 94.8463 41.5865C94.8463 42.562 94.6797 43.4007 94.3466 44.1025C94.0135 44.7925 93.5555 45.3219 92.9726 45.6907C92.4016 46.0595 91.7473 46.2439 91.0097 46.2439C90.2246 46.2439 89.5703 46.0238 89.0468 45.5836C88.5353 45.1435 88.1843 44.5903 87.994 43.9241L88.226 43.5494V49.8128H85.7813ZM90.2959 44.3702C90.9502 44.3702 91.4618 44.1382 91.8306 43.6743C92.2112 43.1984 92.4016 42.5084 92.4016 41.6043C92.4016 40.7002 92.2172 40.0162 91.8484 39.5522C91.4915 39.0764 90.9859 38.8384 90.3316 38.8384C89.9153 38.8384 89.5465 38.9514 89.2253 39.1775C88.916 39.3916 88.6721 39.7069 88.4936 40.1232C88.3152 40.5277 88.226 41.0214 88.226 41.6043C88.226 42.1753 88.3093 42.669 88.4758 43.0854C88.6423 43.5018 88.8803 43.823 89.1896 44.049C89.5108 44.2631 89.8796 44.3702 90.2959 44.3702ZM96.7905 49.8128V37.1432H98.9853L99.1459 39.9805L98.8426 39.6593C98.9497 39.1358 99.1459 38.6719 99.4315 38.2674C99.7289 37.8629 100.104 37.5477 100.556 37.3217C101.008 37.0837 101.513 36.9648 102.072 36.9648C102.798 36.9648 103.446 37.1492 104.017 37.5179C104.588 37.8867 105.035 38.4161 105.356 39.1061C105.689 39.7842 105.855 40.611 105.855 41.5865C105.855 42.562 105.689 43.4007 105.356 44.1025C105.023 44.7925 104.565 45.3219 103.982 45.6907C103.411 46.0595 102.756 46.2439 102.019 46.2439C101.234 46.2439 100.579 46.0238 100.056 45.5836C99.5445 45.1435 99.1935 44.5903 99.0032 43.9241L99.2352 43.5494V49.8128H96.7905ZM101.305 44.3702C101.959 44.3702 102.471 44.1382 102.84 43.6743C103.22 43.1984 103.411 42.5084 103.411 41.6043C103.411 40.7002 103.226 40.0162 102.858 39.5522C102.501 39.0764 101.995 38.8384 101.341 38.8384C100.924 38.8384 100.556 38.9514 100.234 39.1775C99.9251 39.3916 99.6813 39.7069 99.5028 40.1232C99.3244 40.5277 99.2352 41.0214 99.2352 41.6043C99.2352 42.1753 99.3184 42.669 99.485 43.0854C99.6515 43.5018 99.8895 43.823 100.199 44.049C100.52 44.2631 100.889 44.3702 101.305 44.3702ZM117.626 34.1097C118.697 34.1097 119.636 34.294 120.445 34.6628C121.254 35.0316 121.944 35.5788 122.515 36.3045L121.141 37.8927C120.654 37.2741 120.118 36.822 119.535 36.5365C118.964 36.2391 118.298 36.0904 117.537 36.0904C117.037 36.0904 116.621 36.1558 116.288 36.2867C115.966 36.4175 115.728 36.59 115.574 36.8042C115.431 37.0183 115.36 37.2562 115.36 37.5179C115.36 37.8391 115.485 38.1128 115.734 38.3388C115.984 38.5529 116.413 38.7314 117.019 38.8741L119.214 39.3738C120.38 39.6355 121.213 40.0281 121.712 40.5515C122.224 41.063 122.48 41.7292 122.48 42.5501C122.48 43.3233 122.277 43.9895 121.873 44.5487C121.468 45.0959 120.903 45.5182 120.178 45.8156C119.452 46.1011 118.619 46.2439 117.679 46.2439C116.859 46.2439 116.103 46.1487 115.413 45.9584C114.735 45.7561 114.128 45.4825 113.593 45.1375C113.058 44.7925 112.612 44.394 112.255 43.9419L113.647 42.2824C113.92 42.6631 114.259 43.0021 114.664 43.2995C115.068 43.5969 115.526 43.8349 116.038 44.0133C116.561 44.1799 117.108 44.2631 117.679 44.2631C118.167 44.2631 118.578 44.2096 118.911 44.1025C119.256 43.9836 119.512 43.823 119.678 43.6207C119.857 43.4066 119.946 43.1508 119.946 42.8534C119.946 42.5441 119.839 42.2824 119.625 42.0683C119.422 41.8422 119.042 41.6697 118.482 41.5508L116.091 41.0155C115.401 40.8489 114.807 40.6348 114.307 40.3731C113.819 40.0994 113.444 39.7544 113.183 39.3381C112.933 38.9098 112.808 38.4042 112.808 37.8213C112.808 37.1194 112.998 36.4889 113.379 35.9298C113.76 35.3707 114.307 34.9305 115.021 34.6093C115.746 34.2762 116.615 34.1097 117.626 34.1097ZM127.54 34.413V43.1568C127.54 43.5851 127.647 43.9003 127.861 44.1025C128.087 44.2929 128.39 44.3881 128.771 44.3881C129.068 44.3881 129.33 44.3464 129.556 44.2631C129.782 44.168 129.984 44.0431 130.163 43.8884L130.555 45.5123C130.27 45.7383 129.913 45.9167 129.485 46.0476C129.056 46.1784 128.604 46.2439 128.128 46.2439C127.534 46.2439 127.004 46.1547 126.54 45.9762C126.088 45.7978 125.731 45.5123 125.47 45.1197C125.22 44.7271 125.095 44.2037 125.095 43.5494V35.0911L127.54 34.413ZM130.395 37.1432V38.9633H123.453V37.1432H130.395ZM135.939 36.9648C136.843 36.9648 137.634 37.1492 138.312 37.5179C139.002 37.8867 139.537 38.4161 139.918 39.1061C140.311 39.7961 140.507 40.6288 140.507 41.6043C140.507 42.5679 140.311 43.4007 139.918 44.1025C139.537 44.7925 139.002 45.3219 138.312 45.6907C137.634 46.0595 136.843 46.2439 135.939 46.2439C135.046 46.2439 134.255 46.0595 133.565 45.6907C132.875 45.3219 132.334 44.7925 131.942 44.1025C131.561 43.4007 131.37 42.5679 131.37 41.6043C131.37 40.6288 131.561 39.7961 131.942 39.1061C132.334 38.4161 132.875 37.8867 133.565 37.5179C134.255 37.1492 135.046 36.9648 135.939 36.9648ZM135.939 38.7849C135.487 38.7849 135.1 38.892 134.779 39.1061C134.469 39.3083 134.232 39.6176 134.065 40.034C133.898 40.4504 133.815 40.9738 133.815 41.6043C133.815 42.2348 133.898 42.7583 134.065 43.1746C134.232 43.591 134.469 43.9063 134.779 44.1204C135.1 44.3226 135.487 44.4237 135.939 44.4237C136.379 44.4237 136.754 44.3226 137.063 44.1204C137.384 43.9063 137.628 43.591 137.794 43.1746C137.961 42.7583 138.044 42.2348 138.044 41.6043C138.044 40.9738 137.961 40.4504 137.794 40.034C137.628 39.6176 137.384 39.3083 137.063 39.1061C136.754 38.892 136.379 38.7849 135.939 38.7849ZM142.374 46.0654V37.1432H144.497L144.658 38.892C144.896 38.2734 145.241 37.7975 145.693 37.4644C146.157 37.1313 146.734 36.9648 147.424 36.9648C147.626 36.9648 147.811 36.9826 147.977 37.0183C148.144 37.054 148.28 37.1016 148.388 37.1611L148.102 39.2132C147.983 39.1656 147.834 39.1299 147.656 39.1061C147.489 39.0823 147.269 39.0704 146.996 39.0704C146.639 39.0704 146.294 39.1596 145.961 39.3381C145.628 39.5046 145.354 39.7663 145.14 40.1232C144.926 40.4682 144.819 40.9084 144.819 41.4437V46.0654H142.374ZM153.689 46.2439C152.749 46.2439 151.929 46.0595 151.227 45.6907C150.537 45.3219 150.001 44.7925 149.621 44.1025C149.24 43.4126 149.05 42.5798 149.05 41.6043C149.05 40.6288 149.24 39.7961 149.621 39.1061C150.001 38.4161 150.531 37.8867 151.209 37.5179C151.899 37.1492 152.684 36.9648 153.564 36.9648C154.469 36.9648 155.236 37.1492 155.866 37.5179C156.497 37.8748 156.979 38.3685 157.312 38.999C157.645 39.6176 157.811 40.3255 157.811 41.1225C157.811 41.3604 157.805 41.5865 157.794 41.8006C157.782 42.0147 157.764 42.2051 157.74 42.3716H150.62V40.6764H156.669L155.492 41.1047C155.492 40.3552 155.319 39.7782 154.974 39.3738C154.641 38.9693 154.165 38.7671 153.547 38.7671C153.094 38.7671 152.702 38.8741 152.369 39.0883C152.048 39.3024 151.804 39.6236 151.637 40.0519C151.471 40.4682 151.387 40.9976 151.387 41.64C151.387 42.2705 151.477 42.7939 151.655 43.2103C151.845 43.6148 152.107 43.9181 152.44 44.1204C152.785 44.3226 153.196 44.4237 153.671 44.4237C154.195 44.4237 154.617 44.3226 154.938 44.1204C155.26 43.9181 155.509 43.6386 155.688 43.2817L157.633 44.0312C157.443 44.4951 157.151 44.8936 156.759 45.2267C156.378 45.5598 155.92 45.8156 155.385 45.9941C154.861 46.1606 154.296 46.2439 153.689 46.2439Z" fill="white"/>
<path opacity="0.67" d="M77.7085 23.919C76.8698 23.919 76.1426 23.7361 75.527 23.3703C74.9203 22.9955 74.4474 22.4691 74.1084 21.791C73.7783 21.113 73.6132 20.3055 73.6132 19.3687C73.6132 18.4318 73.7872 17.6244 74.1351 16.9463C74.492 16.2682 74.9872 15.7462 75.6207 15.3804C76.2542 15.0057 76.9813 14.8183 77.8022 14.8183C78.6766 14.8183 79.3859 14.9834 79.9301 15.3135C80.4833 15.6436 80.9294 16.1522 81.2685 16.8392L80.2915 17.3745C80.0952 16.866 79.7829 16.4823 79.3546 16.2236C78.9353 15.9559 78.4178 15.8221 77.8022 15.8221C77.2044 15.8221 76.6735 15.9648 76.2096 16.2503C75.7545 16.5269 75.3932 16.9329 75.1255 17.4682C74.8668 17.9946 74.7374 18.6281 74.7374 19.3687C74.7374 20.1092 74.8489 20.7471 75.072 21.2825C75.304 21.8089 75.643 22.2148 76.0891 22.5004C76.5441 22.7769 77.0973 22.9152 77.7486 22.9152C78.1145 22.9152 78.4535 22.8706 78.7658 22.7814C79.087 22.6833 79.3636 22.5405 79.5955 22.3531C79.8364 22.1658 80.0238 21.9293 80.1576 21.6438C80.2915 21.3583 80.3584 21.0237 80.3584 20.6401V20.3323H77.5479V19.3285H81.3354V23.7852H80.4922L80.4387 22.139L80.6662 22.1792C80.4342 22.7323 80.0684 23.1606 79.5688 23.464C79.0691 23.7673 78.449 23.919 77.7085 23.919ZM86.2957 23.919C85.6622 23.919 85.0956 23.7807 84.596 23.5041C84.1053 23.2275 83.7216 22.8305 83.445 22.313C83.1684 21.7866 83.0301 21.162 83.0301 20.4393C83.0301 19.7166 83.1684 19.0965 83.445 18.579C83.7216 18.0526 84.1008 17.6511 84.5826 17.3745C85.0644 17.098 85.6131 16.9597 86.2288 16.9597C86.8533 16.9597 87.3842 17.0935 87.8214 17.3612C88.2675 17.6288 88.6065 17.9946 88.8385 18.4586C89.0705 18.9136 89.1865 19.4267 89.1865 19.9977C89.1865 20.1494 89.182 20.2876 89.1731 20.4126C89.1642 20.5375 89.1508 20.649 89.1329 20.7471H83.7261V19.7969H88.6645L88.1158 19.904C88.1158 19.2616 87.9374 18.7664 87.5805 18.4184C87.2325 18.0705 86.773 17.8965 86.202 17.8965C85.7648 17.8965 85.3856 17.9991 85.0644 18.2043C84.7521 18.4006 84.5068 18.6906 84.3283 19.0742C84.1588 19.449 84.074 19.904 84.074 20.4393C84.074 20.9657 84.1633 21.4208 84.3417 21.8044C84.5202 22.1881 84.77 22.4825 85.0912 22.6877C85.4213 22.884 85.8139 22.9822 86.2689 22.9822C86.7596 22.9822 87.1567 22.8885 87.46 22.7011C87.7723 22.5137 88.0221 22.2595 88.2095 21.9383L89.0526 22.4334C88.8831 22.7368 88.6645 23 88.3969 23.2231C88.1381 23.4461 87.8303 23.6201 87.4734 23.745C87.1254 23.861 86.7329 23.919 86.2957 23.919ZM92.4721 15.1931V21.9383C92.4721 22.2684 92.5658 22.5137 92.7531 22.6743C92.9405 22.8349 93.1814 22.9152 93.4758 22.9152C93.7346 22.9152 93.9576 22.8706 94.145 22.7814C94.3324 22.6922 94.5019 22.5717 94.6536 22.4201L95.0283 23.3167C94.8231 23.5041 94.5777 23.6513 94.2922 23.7584C94.0156 23.8655 93.6944 23.919 93.3286 23.919C92.9896 23.919 92.6728 23.861 92.3784 23.745C92.084 23.6201 91.8475 23.4283 91.6691 23.1695C91.4996 22.9019 91.4103 22.5539 91.4014 22.1256V15.4875L92.4721 15.1931ZM94.9079 17.0935V18.0169H90.0631V17.0935H94.9079ZM103.564 16.9597C104.197 16.9597 104.755 17.098 105.237 17.3745C105.727 17.6511 106.111 18.0526 106.388 18.579C106.664 19.0965 106.802 19.7166 106.802 20.4393C106.802 21.162 106.664 21.7866 106.388 22.313C106.111 22.8305 105.727 23.2275 105.237 23.5041C104.755 23.7807 104.197 23.919 103.564 23.919C102.939 23.919 102.382 23.7807 101.891 23.5041C101.4 23.2275 101.016 22.8305 100.74 22.313C100.463 21.7866 100.325 21.162 100.325 20.4393C100.325 19.7166 100.463 19.0965 100.74 18.579C101.016 18.0526 101.4 17.6511 101.891 17.3745C102.382 17.098 102.939 16.9597 103.564 16.9597ZM103.564 17.8831C103.109 17.8831 102.721 17.9857 102.399 18.1909C102.078 18.3961 101.828 18.6906 101.65 19.0742C101.48 19.449 101.396 19.904 101.396 20.4393C101.396 20.9657 101.48 21.4208 101.65 21.8044C101.828 22.1881 102.078 22.4825 102.399 22.6877C102.721 22.8929 103.109 22.9955 103.564 22.9955C104.019 22.9955 104.407 22.8929 104.728 22.6877C105.049 22.4825 105.295 22.1881 105.464 21.8044C105.643 21.4208 105.732 20.9657 105.732 20.4393C105.732 19.904 105.643 19.449 105.464 19.0742C105.295 18.6906 105.049 18.3961 104.728 18.1909C104.407 17.9857 104.019 17.8831 103.564 17.8831ZM108.684 23.7852V17.0935H109.621L109.715 18.5924L109.541 18.4452C109.684 18.0883 109.875 17.8028 110.116 17.5887C110.357 17.3656 110.634 17.205 110.946 17.1069C111.267 17.0087 111.597 16.9597 111.936 16.9597C112.418 16.9597 112.855 17.0533 113.248 17.2407C113.641 17.4192 113.953 17.6957 114.185 18.0705C114.426 18.4452 114.546 18.9225 114.546 19.5025V23.7852H113.476V19.8772C113.476 19.1367 113.315 18.6237 112.994 18.3381C112.681 18.0437 112.293 17.8965 111.829 17.8965C111.508 17.8965 111.187 17.9723 110.866 18.124C110.545 18.2757 110.277 18.521 110.063 18.8601C109.858 19.1991 109.755 19.6542 109.755 20.2252V23.7852H108.684ZM122.582 15.1931V21.9383C122.582 22.2684 122.676 22.5137 122.863 22.6743C123.05 22.8349 123.291 22.9152 123.586 22.9152C123.844 22.9152 124.068 22.8706 124.255 22.7814C124.442 22.6922 124.612 22.5717 124.763 22.4201L125.138 23.3167C124.933 23.5041 124.688 23.6513 124.402 23.7584C124.126 23.8655 123.804 23.919 123.439 23.919C123.099 23.919 122.783 23.861 122.488 23.745C122.194 23.6201 121.957 23.4283 121.779 23.1695C121.609 22.9019 121.52 22.5539 121.511 22.1256V15.4875L122.582 15.1931ZM125.018 17.0935V18.0169H120.173V17.0935H125.018ZM126.476 23.7852V14.0153H127.546V18.0972C127.778 17.6957 128.086 17.4058 128.47 17.2273C128.854 17.0489 129.273 16.9597 129.728 16.9597C130.21 16.9597 130.647 17.0533 131.04 17.2407C131.432 17.4192 131.744 17.6957 131.976 18.0705C132.217 18.4452 132.338 18.9225 132.338 19.5025V23.7852H131.267V19.8772C131.267 19.1367 131.106 18.6237 130.785 18.3381C130.473 18.0437 130.085 17.8965 129.621 17.8965C129.3 17.8965 128.978 17.9723 128.657 18.124C128.336 18.2757 128.068 18.5255 127.854 18.8735C127.649 19.2125 127.546 19.6676 127.546 20.2386V23.7852H126.476ZM137.425 23.919C136.792 23.919 136.225 23.7807 135.726 23.5041C135.235 23.2275 134.851 22.8305 134.575 22.313C134.298 21.7866 134.16 21.162 134.16 20.4393C134.16 19.7166 134.298 19.0965 134.575 18.579C134.851 18.0526 135.23 17.6511 135.712 17.3745C136.194 17.098 136.743 16.9597 137.358 16.9597C137.983 16.9597 138.514 17.0935 138.951 17.3612C139.397 17.6288 139.736 17.9946 139.968 18.4586C140.2 18.9136 140.316 19.4267 140.316 19.9977C140.316 20.1494 140.312 20.2876 140.303 20.4126C140.294 20.5375 140.28 20.649 140.263 20.7471H134.856V19.7969H139.794L139.245 19.904C139.245 19.2616 139.067 18.7664 138.71 18.4184C138.362 18.0705 137.903 17.8965 137.332 17.8965C136.894 17.8965 136.515 17.9991 136.194 18.2043C135.882 18.4006 135.636 18.6906 135.458 19.0742C135.288 19.449 135.204 19.904 135.204 20.4393C135.204 20.9657 135.293 21.4208 135.471 21.8044C135.65 22.1881 135.9 22.4825 136.221 22.6877C136.551 22.884 136.943 22.9822 137.398 22.9822C137.889 22.9822 138.286 22.8885 138.59 22.7011C138.902 22.5137 139.152 22.2595 139.339 21.9383L140.182 22.4334C140.013 22.7368 139.794 23 139.526 23.2231C139.268 23.4461 138.96 23.6201 138.603 23.745C138.255 23.861 137.862 23.919 137.425 23.919Z" fill="white"/>
</svg>
